<svg width="40" height="40" viewBox="0 0 40 40" fill="none"><path d="M11.726 9.33751C12.4463 9.55096 15.8973 13.8485 17.4426 15.8719C17.1037 13.6147 16.2456 8.68466 16.2456 7.8122C16.2456 6.72161 18.0012 6.77481 18.2172 7.8122C18.39 8.6421 19.0141 13.8326 19.3046 16.3241C20.8119 13.1676 23.9223 6.81205 24.3053 6.64181C24.7841 6.42901 26.3801 6.7748 26.1673 7.94518C25.997 8.88149 23.5428 13.8148 22.3369 16.1645C24.3762 14.5773 28.5985 11.4031 29.173 11.4031C29.8912 11.4031 30.636 12.3607 30.0508 13.1587C29.5827 13.7971 24.6245 17.3792 22.2039 19.0904C25.1033 18.8189 31.1413 18.327 32.0989 18.5318C33.2959 18.7878 32.0724 19.5958 31.567 19.9948C31.1627 20.314 25.1565 20.4825 22.2039 20.5268C24.4649 21.9188 29.1038 24.8146 29.572 25.2615C30.1572 25.8201 29.2262 26.6713 28.2687 26.5649C27.5026 26.4798 23.1262 23.4715 21.0337 21.9779C22.8602 24.239 26.5344 28.9177 26.6195 29.5441C26.7259 30.327 25.9279 30.4218 25.4758 30.1824C25.114 29.9909 21.4061 25.3147 19.5973 23.0006C20.1116 25.1463 21.1188 29.7515 21.0337 31.007C20.9273 32.5764 19.3845 31.9646 18.7993 31.3794C18.3312 30.9113 18.2162 25.9586 18.2172 23.5408C17.0831 25.5319 14.6487 29.6129 13.9839 30.0077C13.1528 30.5011 12.3217 29.9298 12.5554 28.7611C12.7424 27.8261 14.5262 25.0991 15.3947 23.8524C13.6432 25.2939 10.0725 28.1871 9.80244 28.2286C9.46481 28.2806 9.19211 27.917 9.296 27.4625C9.37911 27.0989 13.3965 23.3433 15.3947 21.511C13.2269 21.989 8.74434 23.0052 8.15734 23.2453C7.4236 23.5455 6.6565 22.4782 6.5898 21.9779C6.5231 21.4776 6.95667 21.0107 7.62371 20.7439C8.15734 20.5304 12.7599 20.277 14.9945 20.1769C12.5376 19.6989 7.4903 18.6494 6.95667 18.2759C6.28963 17.8089 7.05673 16.7417 7.62371 16.7083C8.0773 16.6816 12.482 17.4754 14.6276 17.8756C13.1379 15.9523 10.1118 11.9056 9.925 11.1052C9.69154 10.1046 10.8255 9.0707 11.726 9.33751Z" fill="#D87756"/><path d="M18.5072 24.694C18.3532 25.0075 17.9703 25.8194 17.6693 26.5583C17.293 27.4818 16.8827 29.8936 16.8656 30.7145C16.8486 31.5352 17.3955 32.1333 18.2845 32.236C19.1739 32.3386 19.9058 31.7105 19.5501 30.9704C19.412 30.6827 18.701 28.9884 19.0199 27.8063C18.6621 27.1469 18.572 26.3871 18.5072 24.694Z" fill="#4C3206"/><path d="M26.7337 23.4967C27.0472 23.947 27.91 24.8714 28.8538 24.9674C30.0339 25.0872 29.8629 23.9754 28.8538 23.8385C28.0468 23.7291 27.1043 23.5651 26.7337 23.4967Z" fill="#4C3206"/><path d="M15.3226 19.0436C15.1864 18.8384 14.7145 18.8918 14.3343 19.109C13.9541 19.3264 13.7365 20.2716 13.8343 20.6627C13.9325 21.0536 15.0407 21.0429 15.6273 20.6627C15.2047 20.0963 15.2264 19.3573 15.3226 19.0436Z" fill="#4C3206"/></svg>