<svg id="Group_4741" data-name="Group 4741" xmlns="http://www.w3.org/2000/svg" xmlns:xlink="http://www.w3.org/1999/xlink" width="24" height="24" viewBox="0 0 24 24">
  <defs>
    <clipPath id="clip-path">
      <circle id="Ellipse_317" data-name="Ellipse 317" cx="10" cy="10" r="10" transform="translate(2 2)" fill="#fff"/>
    </clipPath>
  </defs>
  <g id="Group_4234" data-name="Group 4234" transform="translate(-1285 -782)">
    <circle id="d33399950e751f811152c73946bce207" cx="11.834" cy="11.834" r="11.834" transform="translate(1285.166 782.166)" fill="#fff"/>
    <path id="d33399950e751f811152c73946bce207_-_Outline" data-name="d33399950e751f811152c73946bce207 - Outline" d="M12,1.125A10.875,10.875,0,0,0,4.31,19.69,10.875,10.875,0,0,0,19.69,4.31,10.8,10.8,0,0,0,12,1.125M12,0A12,12,0,1,1,0,12,12,12,0,0,1,12,0Z" transform="translate(1285 782)" fill="#0038a8"/>
  </g>
  <g id="Mask_Group_62" data-name="Mask Group 62" clip-path="url(#clip-path)">
    <g id="philipines" transform="translate(-5.438 0.781)">
      <g id="layer2" transform="translate(0 0)">
        <rect id="rect2170" width="44" height="11" transform="translate(0.438 0.219)" fill="#0038a8"/>
        <rect id="rect2171" width="44" height="11" transform="translate(0.438 11.219)" fill="#ce1126"/>
        <path id="path3144" d="M22.437,19.381,0,19.408,11.2,0,22.437,19.381Z" transform="translate(19.408 0) rotate(90)" fill="#fff"/>
      </g>
      <g id="layer3" transform="translate(0.188 1.278)">
        <path id="path4144" d="M7.882,6.844,7.34,6.133l-.848.28L7,5.678l-.528-.72.856.257.522-.725.02.893.852.272-.844.3,0,.894Z" transform="translate(8.26 4.319)" fill="#fcd116"/>
        <path id="path4146" d="M1.41,2.354.868,1.643l-.848.28.508-.735L0,.469.856.725,1.378,0,1.4.893l.852.272-.844.3,0,.894Z" transform="translate(0.12 17.524) rotate(-24.231)" fill="#fcd116"/>
        <path id="path4148" d="M1.41,2.354.868,1.643l-.848.28.508-.735L0,.469.856.725,1.378,0,1.4.893l.852.272-.844.3,0,.894Z" transform="translate(0 1.651) rotate(-47.215)" fill="#fcd116"/>
        <path id="path5169" d="M6.816,6.537A2.244,2.244,0,1,1,4.572,4.293,2.244,2.244,0,0,1,6.816,6.537Z" transform="translate(2.251 3.461)" fill="#fcd116"/>
        <path id="path7113" d="M3.288,7.6,3,3.221l.288-.288.307.278Z" transform="translate(3.544 2.371)" fill="#fcd116" fill-rule="evenodd"/>
        <path id="path8084" d="M3.129,7.312l.545-4.135h.01l.218.238Z" transform="translate(3.704 2.673)" fill="#fcd116" fill-rule="evenodd"/>
        <path id="path9055" d="M3.129,6.84l2.2-3.292h.327Z" transform="translate(3.704 3.135)" fill="#fcd116" fill-rule="evenodd"/>
        <path id="path9057" d="M3.129,6.856,6.034,3.543h.416v.4Z" transform="translate(3.704 3.129)" fill="#fcd116" fill-rule="evenodd"/>
        <path id="path9059" d="M3.13,6.445l3.321-2.58h.011l-.011.359Z" transform="translate(3.705 3.529)" fill="#fcd116" fill-rule="evenodd"/>
        <path id="path9061" d="M3.13,5.449l3.893-.774h.011L7.27,4.9Z" transform="translate(3.705 4.537)" fill="#fcd116" fill-rule="evenodd"/>
        <path id="path9063" d="M3.13,5.182l4.4-.292h.011l.3.28-.3.3L3.13,5.182Z" transform="translate(3.705 4.804)" fill="#fcd116" fill-rule="evenodd"/>
        <path id="path9065" d="M3.13,5.015l4.173.55-.011.011L7.079,5.8,3.13,5.015Z" transform="translate(3.705 4.96)" fill="#fcd116" fill-rule="evenodd"/>
        <path id="path9067" d="M3.13,5.015,6.451,7.236v.011l.011.325Z" transform="translate(3.705 4.96)" fill="#fcd116" fill-rule="evenodd"/>
        <path id="path9069" d="M3.13,5.02,6.462,7.937v.022l-.011.393h-.4L3.13,5.02Z" transform="translate(3.705 4.966)" fill="#fcd116" fill-rule="evenodd"/>
        <path id="path9071" d="M3.13,5.015,5.7,8.358H5.363Z" transform="translate(3.705 4.96)" fill="#fcd116" fill-rule="evenodd"/>
        <path id="path9073" d="M3.13,5.015l.785,3.938-.236.213L3.13,5.015Z" transform="translate(3.705 4.96)" fill="#fcd116" fill-rule="evenodd"/>
        <path id="path9075" d="M3.292,5.015l.292,4.42-.011.011-.28.292L3,9.446l.292-4.431Z" transform="translate(3.543 4.96)" fill="#fcd116" fill-rule="evenodd"/>
        <path id="path9077" d="M3.565,5.015l-.55,4.173.022.022L2.78,8.953l.785-3.938Z" transform="translate(3.27 4.96)" fill="#fcd116" fill-rule="evenodd"/>
        <path id="path9079" d="M4.554,5.015,2.322,8.358,2.31,8.347l-.325.011Z" transform="translate(2.281 4.96)" fill="#fcd116" fill-rule="evenodd"/>
        <path id="path9081" d="M4.971,5.02,2.054,8.352H2.043L1.65,8.341v-.4Z" transform="translate(1.864 4.966)" fill="#fcd116" fill-rule="evenodd"/>
        <path id="path9083" d="M4.971,5.02,1.65,7.567l.011.011L1.65,7.241,4.971,5.02Z" transform="translate(1.864 4.966)" fill="#fcd116" fill-rule="evenodd"/>
        <path id="path9085" d="M5.437,5.015,1.5,5.8l.011-.011-.236-.224Z" transform="translate(1.398 4.96)" fill="#fcd116" fill-rule="evenodd"/>
        <path id="path9087" d="M5.736,5.177,1.3,5.468l-.011-.011-.258-.28.292-.292Z" transform="translate(1.099 4.798)" fill="#fcd116" fill-rule="evenodd"/>
        <path id="path9089" d="M5.418,5.449,1.29,4.9,1.5,4.675Z" transform="translate(1.416 4.537)" fill="#fcd116" fill-rule="evenodd"/>
        <path id="path9091" d="M4.971,6.427,1.65,4.205V3.88Z" transform="translate(1.864 3.548)" fill="#fcd116" fill-rule="evenodd"/>
        <path id="path9093" d="M4.971,6.85,1.65,3.933V3.54h.415Z" transform="translate(1.864 3.125)" fill="#fcd116" fill-rule="evenodd"/>
        <path id="path9095" d="M4.535,6.861,2,3.551h.034l.28-.011Z" transform="translate(2.299 3.125)" fill="#fcd116" fill-rule="evenodd"/>
        <path id="path9097" d="M3.559,7.31,2.785,3.417v.022l.224-.269Z" transform="translate(3.276 2.665)" fill="#fcd116" fill-rule="evenodd"/>
      </g>
    </g>
  </g>
</svg>