<svg width="24" height="24" viewBox="0 0 24 24" fill="none" xmlns="http://www.w3.org/2000/svg" class="h-[34px] w-[34px] lg:h-14 lg:w-14"><g clip-path="url(#clip0_3259_1306)"><path d="M12 24C18.6274 24 24 18.6274 24 12C24 5.37259 18.6274 0 12 0C5.37259 0 0 5.37259 0 12C0 18.6274 5.37259 24 12 24Z" fill="#BAF2C9"></path><path d="M15.7079 12.6637C16.679 12.1735 17.3047 11.1909 17.337 10.1034C17.337 8.06665 15.7658 6.99005 12.4711 6.99005H10.6163V9.24488C11.0961 9.23009 11.6563 9.23009 12.311 9.23009C13.8094 9.23009 14.4931 9.67385 14.4931 10.6854C14.5013 10.9756 14.4231 11.2619 14.2674 11.5067C14.1182 11.7838 13.8499 11.9767 13.54 12.0308C13.1564 12.0855 12.77 12.1145 12.3836 12.1177C11.7415 12.1177 11.142 12.1177 10.6797 12.0833H7.75V18.7296H13.2558C16.1653 18.7296 17.6638 17.6093 17.6638 15.4125C17.6965 14.1626 16.8987 13.0418 15.7074 12.6631L15.7079 12.6637ZM14.675 16.112C14.6089 16.3174 14.4914 16.5027 14.333 16.6502C14.1023 16.7431 13.8542 16.7858 13.6056 16.7737H10.6595V14.0463H12.7033C14.1581 14.0463 14.7838 14.4824 14.7838 15.4497C14.7876 15.6748 14.7504 15.8994 14.6745 16.112H14.675Z" fill="black"></path><path d="M10.6163 4.75003H7.75055V6.99007H10.6163V4.75003Z" fill="black"></path></g><defs><clipPath id="clip0_3259_1306"><rect width="24" height="24" fill="white"></rect></clipPath></defs></svg>
