<svg width="32" height="32" viewBox="0 0 32 32" fill="none" xmlns="http://www.w3.org/2000/svg">
<rect y="-0.00195312" width="32" height="32" rx="16" fill="url(#paint0_linear_546_7005)"/>
<g filter="url(#filter0_d_546_7005)">
<path fill-rule="evenodd" clip-rule="evenodd" d="M8.33933 13.6225C8.33933 13.6225 6.05625 9.93363 8.60528 8.64573C10.2224 7.93594 11.8604 8.44513 12.7123 8.88487C12.8081 8.9285 12.8925 8.96798 12.9681 9.00338C13.5389 9.27065 13.6136 9.30563 14.4099 9.13784C16.3795 8.68876 18.4164 8.92227 19.8811 9.53473C21.72 7.76902 25.8466 7.6861 23.675 12.178C23.675 12.178 24.0829 12.6378 24.3392 13.0125C24.4076 13.1656 24.3141 13.3047 24.2124 13.4557C24.0959 13.629 23.9687 13.818 24.0631 14.062C24.2041 14.4262 24.4259 14.7828 24.6808 15.1924C25.0019 15.7085 25.3755 16.3089 25.7057 17.1151C26.2978 18.5611 25.4643 20.7979 24.6638 22.096C23.2927 24.2209 21.0221 23.3745 19.1594 22.4588C18.8961 22.3293 18.5775 22.4476 18.4668 22.7193L17.4752 25.1533C17.3179 25.5393 16.9116 25.7651 16.5108 25.6506C13.6873 24.8435 8.88823 21.9963 6.41187 15.9036C6.22954 15.455 6.46936 14.9485 6.89826 14.7237C7.37469 14.474 7.95899 14.1004 8.33933 13.6225ZM24.411 12.0761C24.5463 12.2403 24.7179 12.4563 24.8564 12.6588L24.8882 12.7053L24.9112 12.7568C25.04 13.0447 24.9875 13.3112 24.9109 13.4935C24.856 13.6243 24.7693 13.7515 24.7263 13.8146C24.7204 13.8233 24.7154 13.8307 24.7113 13.8368C24.6942 13.8625 24.6816 13.8827 24.6725 13.898C24.7916 14.1831 24.9715 14.4728 25.2154 14.8654C25.2474 14.9168 25.2804 14.9701 25.3146 15.0253C25.617 15.514 25.9696 16.1063 26.2855 16.8777C26.6575 17.7859 26.5609 18.8661 26.3134 19.8186C26.0615 20.7883 25.626 21.7293 25.1971 22.4249L25.1937 22.4304L25.1903 22.4357C24.7922 23.0527 24.3081 23.4834 23.7546 23.7446C23.2042 24.0043 22.6237 24.0782 22.057 24.043C20.9936 23.9768 19.9079 23.5192 18.9976 23.0771L18.0554 25.3897C17.7916 26.0373 17.0815 26.4653 16.3386 26.253C13.3573 25.4009 8.39038 22.4355 5.8314 16.1396C5.5047 15.3358 5.95 14.5133 6.6074 14.1687C6.9375 13.9957 7.28833 13.7761 7.56974 13.5243C7.53423 13.4549 7.49618 13.3783 7.45668 13.2953C7.27105 12.9054 7.04592 12.3596 6.90615 11.7591C6.76784 11.165 6.70134 10.4677 6.88406 9.80107C7.0742 9.10731 7.52379 8.49014 8.32272 8.08648L8.33789 8.07881L8.35346 8.07198C10.2088 7.25766 12.0501 7.84154 12.9856 8.32083C13.0922 8.36945 13.1735 8.40762 13.2432 8.44033C13.3198 8.47631 13.3824 8.50569 13.4492 8.53513C13.5616 8.5847 13.6132 8.60034 13.6489 8.60724C13.7151 8.62001 13.8125 8.62319 14.2758 8.52575C16.2117 8.08548 18.2114 8.26098 19.7553 8.81421C20.2369 8.43262 20.8033 8.1448 21.3728 7.97166C22.0615 7.76232 22.8196 7.70179 23.4747 7.91356C24.1687 8.13789 24.7173 8.66513 24.8731 9.50778C25.0028 10.2096 24.8482 11.0667 24.411 12.0761Z" fill="white"/>
<path d="M20.5511 9.78322C20.9431 9.42982 22.2014 8.79172 23.1586 9.12866C21.9419 9.18576 21.637 10.372 20.5511 9.78322Z" fill="white"/>
<path d="M8.39717 16.0905C8.20596 15.4402 7.72407 14.779 6.91513 15.4383C8.56766 19.7582 11.495 22.0612 11.495 22.0612C9.93635 20.4254 8.92097 17.6448 8.39717 16.0905Z" fill="white"/>
<path d="M15.2375 19.059C16.044 19.7667 17.5599 19.814 19.842 19.7229C18.8044 20.301 17.1131 20.282 17.1131 20.282C17.8771 20.7992 19.4456 21.4014 21.0615 21.4874C22.6775 21.5734 23.8636 21.1436 23.8612 19.6837C23.8612 18.1608 21.2132 16.469 15.2375 19.059Z" fill="white"/>
<path d="M25.324 18.1242C25.0013 18.3499 24.6362 18.9237 24.5244 19.6277C24.0392 22.4932 25.5544 19.6584 25.324 18.1242Z" fill="white"/>
<path d="M19.4386 21.7796C20.6931 22.446 23.1937 23.5768 24.1866 21.6805L24.1121 21.6032C24.0743 21.5639 24.0157 21.5537 23.9662 21.5766C22.9017 22.0695 21.294 22.2399 19.4386 21.7796Z" fill="white"/>
<path d="M20.4092 14.297C20.7033 15.1086 21.0696 16.0454 21.3918 16.6501C21.5714 16.9872 21.9185 17.1799 22.298 17.2238C23.9453 17.4143 24.4617 17.2614 24.7863 17.1134C24.9329 17.0466 25.0124 16.8812 24.9228 16.7473C24.9228 16.7473 23.6447 14.6193 23.0129 13.7897C22.6664 13.2827 22.2552 12.7586 23.3615 12.7785C20.2955 9.60603 17.4879 9.0974 14.2245 9.81327C13.5898 9.93798 13.2434 9.84652 12.5867 9.51674C11.8855 9.16202 10.8879 8.76019 9.59926 8.98742C10.5162 9.58633 11.276 10.528 11.8071 11.3496C12.4737 12.3807 13.6038 13.138 14.8282 13.047L18.0279 12.809C19.0263 12.7347 20.0682 13.3557 20.4092 14.297Z" fill="white"/>
<path d="M16.0806 13.5859L13.6544 13.7318C8.97927 14.0795 11.3197 19.3113 17.0188 17.7481C20.1074 16.9009 20.6026 16.3398 19.9481 14.8321C19.848 14.6519 19.6485 14.5495 19.4425 14.5574C17.9162 14.6164 17.0513 14.2477 16.717 13.9053C16.5463 13.7305 16.3244 13.5713 16.0806 13.5859Z" fill="white"/>
</g>
<defs>
<filter id="filter0_d_546_7005" x="4.11001" y="6.37668" width="24.0341" height="21.8659" filterUnits="userSpaceOnUse" color-interpolation-filters="sRGB">
<feFlood flood-opacity="0" result="BackgroundImageFix"/>
<feColorMatrix in="SourceAlpha" type="matrix" values="0 0 0 0 0 0 0 0 0 0 0 0 0 0 0 0 0 0 127 0" result="hardAlpha"/>
<feOffset dy="0.322334"/>
<feGaussianBlur stdDeviation="0.805836"/>
<feComposite in2="hardAlpha" operator="out"/>
<feColorMatrix type="matrix" values="0 0 0 0 0 0 0 0 0 0 0 0 0 0 0 0 0 0 0.2 0"/>
<feBlend mode="normal" in2="BackgroundImageFix" result="effect1_dropShadow_546_7005"/>
<feBlend mode="normal" in="SourceGraphic" in2="effect1_dropShadow_546_7005" result="shape"/>
</filter>
<linearGradient id="paint0_linear_546_7005" x1="16" y1="-0.00195313" x2="16" y2="31.998" gradientUnits="userSpaceOnUse">
<stop stop-color="#FF9E00"/>
<stop offset="1" stop-color="#FE5200"/>
</linearGradient>
</defs>
</svg>
